<svg xmlns="http://www.w3.org/2000/svg" width="214" height="64" viewBox="0 0 214 64">
    <path fill="#00A2FF" fill-rule="evenodd" d="M205.566 43.173h3.532c2.558 0 3.849.873 3.849 2.638 0 1.212-.445 2.148-1.354 2.807-.91.68-2.157 1.02-3.786 1h-4.906c-.592 1.722-1.67 3.977-3.236 6.763-2.644 4.955-6.535 7.422-11.61 7.422-3.13 0-5.732-.957-7.826-2.85-2.115-1.893-3.172-4.253-3.172-7.06 0-1.936.571-3.765 1.713-5.445a10.462 10.462 0 0 1 4.547-3.807c2.115-.978 5.287-1.468 9.475-1.468h4.949l.888-2.127c-1.502.617-2.877.915-4.124.915-2.179 0-3.934-.532-5.245-1.638-1.375-1.063-2.051-2.445-2.051-4.168 0-1.042.444-2.616 1.31-4.722l3.279-7.975.38-.808c.952-2.254 2.454-3.36 4.526-3.36.867 0 1.629.276 2.242.808.571.574.867 1.276.888 2.148-.021.553-.275 1.489-.782 2.786l-3.024 7.06c-.444 1.15-.677 1.894-.677 2.234-.085.957.528 1.446 1.86 1.425.931.021 1.883-.255 2.835-.766.994-.553 1.607-1.148 1.86-1.829l4.062-9.698.317-.808c.951-2.254 2.474-3.36 4.525-3.36.889 0 1.65.276 2.242.872.592.531.888 1.233.888 2.084 0 .553-.148 1.212-.465 1.978l-.36.808-7.55 18.141zm-10.808 5.785h-3.912c-4.272 0-6.408 1.383-6.408 4.169 0 .978.296 1.765.867 2.36.592.596 1.375.894 2.39.894 1.332 0 2.538-.553 3.574-1.638 1.078-1.106 2.22-3.02 3.49-5.785zM180.166 34.9h3.405c2.538 0 3.806.894 3.806 2.68 0 1.234-.444 2.212-1.353 2.914-.93.701-2.2 1.042-3.764 1.042h-3.934c-1.755 0-2.96-.66-3.574-2.02-1.544 1.36-3.003 2.02-4.441 2.02h-3.469c-2.242 0-4.06-.787-5.435-2.404-1.375-1.573-2.052-3.658-2.052-6.273 0-3.871 1.354-7.36 4.04-10.443 2.707-3.063 5.752-4.615 9.157-4.615 2.602 0 4.505.914 5.71 2.722 1.016-1.531 2.348-2.297 3.998-2.297.888 0 1.65.298 2.241.83.592.595.91 1.297.889 2.148.02.553-.148 1.233-.466 2.042l-.359.786-4.4 10.868zm-10.976.702h.719c1.607 0 2.665-.638 3.215-1.893l2.05-4.955c.276-.638.403-1.17.403-1.616 0-.511-.254-.957-.74-1.319-.55-.404-1.185-.595-1.925-.595-1.417 0-2.792.808-4.166 2.403-1.333 1.637-2.01 3.318-2.01 5.04 0 1.957.804 2.935 2.454 2.935zm-21.255-17.333c.846-.298 1.629-.426 2.305-.426 2.284 0 4.125.872 5.52 2.616 1.417 1.766 2.115 4.041 2.115 6.848 0 5.403-2.01 9.635-6.027 12.676-1.417 1.043-2.897 1.553-4.42 1.553h-2.77c-1.947 0-3.596-.702-4.97-2.127-.826 1.425-2.116 2.127-3.871 2.127-.846 0-1.565-.277-2.115-.83a2.751 2.751 0 0 1-.91-2.084c0-.617.149-1.297.445-2.084l.36-.83 12.266-31.433.36-.872C147.11 1.127 148.526 0 150.43 0c.91 0 1.65.276 2.22.83.614.574.91 1.254.91 2.041 0 .66-.148 1.34-.465 2.148l-.339.83-4.822 12.42zm-6.281 14.08c.93 1.19 2.03 1.785 3.278 1.785.931 0 1.692-.255 2.327-.786.846-.681 1.607-1.702 2.284-3.063.634-1.361.951-2.595.951-3.658 0-.872-.232-1.552-.719-2.063-.507-.553-1.142-.83-1.945-.83-1.777 0-3.215 1.32-4.294 3.956l-1.882 4.658zm-12.816 10.824h3.532c2.559 0 3.849.873 3.87 2.638-.021 1.212-.465 2.148-1.354 2.807-.93.68-2.178 1.02-3.806 1h-4.907c-.592 1.722-1.67 3.977-3.236 6.763-2.643 4.955-6.535 7.422-11.61 7.422-3.13 0-5.731-.957-7.825-2.85-2.115-1.893-3.173-4.253-3.173-7.06 0-1.936.572-3.765 1.713-5.445a10.463 10.463 0 0 1 4.548-3.807c2.114-.978 5.287-1.468 9.474-1.468h4.949l.888-2.127c-1.501.617-2.876.915-4.124.915-2.178 0-3.934-.532-5.245-1.638-1.374-1.063-2.051-2.445-2.03-4.168-.021-1.042.423-2.616 1.29-4.722l3.278-7.975.38-.808c.952-2.254 2.475-3.36 4.527-3.36.867 0 1.628.276 2.241.808.571.574.868 1.276.889 2.148-.021.553-.275 1.489-.783 2.786l-2.982 7.06c-.486 1.15-.719 1.894-.719 2.234-.084.957.529 1.446 1.882 1.425.91.021 1.862-.255 2.813-.766.994-.553 1.608-1.148 1.861-1.829l4.06-9.698.318-.808c.952-2.254 2.474-3.36 4.547-3.36.889 0 1.628.276 2.22.872.593.531.889 1.233.889 2.084 0 .553-.148 1.212-.465 1.978l-.36.808-7.55 18.141zm-10.807 5.785h-3.913c-4.271 0-6.408 1.383-6.408 4.169 0 .978.297 1.765.867 2.36.593.596 1.375.894 2.39.894 1.333 0 2.538-.553 3.575-1.638 1.078-1.106 2.241-3.02 3.489-5.785zM103.65 34.985h3.532c2.58 0 3.89.894 3.89 2.68 0 1.212-.464 2.17-1.416 2.85-.888.68-2.157 1.021-3.786 1.021h-4.123c-1.608 0-2.77-.638-3.511-1.893-1.311 1.255-2.729 1.893-4.23 1.893h-3.891c-2.263 0-4.082-.745-5.436-2.255-1.374-1.552-2.051-3.573-2.051-6.104 0-3.892 1.354-7.358 4.06-10.442 2.666-3.105 5.69-4.658 9.052-4.658 2.475 0 4.462.872 5.9 2.638l6.853-16.483C109.677 1.404 111.305 0 113.399 0c.889 0 1.629.276 2.264.83.591.552.909 1.233.909 2.02 0 .638-.17 1.34-.487 2.105l-.36.83-12.075 29.2zm-11.188.617h1.12c1.355 0 2.243-.51 2.666-1.552l2.2-5.296c.274-.638.401-1.127.401-1.468 0-.574-.232-1.063-.74-1.467-.486-.404-1.121-.595-1.861-.595-1.523 0-2.94.829-4.272 2.509-1.311 1.638-1.967 3.424-1.967 5.338 0 1.702.825 2.531 2.453 2.531zM75.437 34.9h3.448c1.353 0 2.305.213 2.876.638.57.404.867 1.085.867 2.042 0 1.234-.444 2.212-1.311 2.914-.889.701-2.115 1.042-3.701 1.042h-5.288c-1.649 0-2.749-.66-3.278-1.978-1.12 1.319-2.474 1.978-4.123 1.978h-4.294c-1.734 0-3.172-.553-4.314-1.66-1.163-1.126-1.734-2.53-1.734-4.231 0-.979.254-2.127.761-3.403l4.019-10.209c1.141-2.807 2.686-4.232 4.61-4.232.867 0 1.586.276 2.178.85a2.77 2.77 0 0 1 .91 2.021c-.022.638-.17 1.34-.508 2.148l-.296.787-3.088 7.848-.36.935c-.168.51-.274.915-.316 1.149-.022.936.55 1.404 1.733 1.425 2.454-.021 4.082-1.042 4.865-3.084l3.7-9.379c1.122-2.85 2.687-4.275 4.717-4.275.804 0 1.502.298 2.136.83.55.595.846 1.276.846 2.105 0 .596-.254 1.574-.761 2.871L75.437 34.9zM51.413 18.503h.909c2.496 0 3.743.893 3.743 2.68 0 1.212-.444 2.169-1.311 2.85-.888.68-2.115 1.02-3.701 1.02h-2.115l-3.955 9.932h3.3c2.495 0 3.743.894 3.743 2.68 0 1.212-.444 2.17-1.332 2.85-.868.68-2.073 1.021-3.638 1.021h-5.308c-1.48 0-2.665-.34-3.553-1.021-.867-.723-1.312-1.68-1.312-2.893 0-.744.19-1.552.571-2.488l.55-1.297 3.447-8.784h-.422c-2.221 0-3.32-.872-3.342-2.637.021-1.212.465-2.19 1.332-2.892.889-.681 2.115-1.021 3.68-1.021h1.375l1.565-3.977.317-.787c.91-2.233 2.369-3.36 4.336-3.36.824 0 1.522.276 2.072.829.614.553.91 1.233.93 2.02-.02.745-.296 1.723-.824 2.893l-1.057 2.382zM25.59 20.63l2.77 3.466 1.586 1.872c3.067 3.764 4.61 7.72 4.632 11.91-.021 4.083-1.375 7.635-4.124 10.719-3.68 4.19-8.544 6.295-14.529 6.295-4.674 0-8.48-1.404-11.463-4.254C1.48 47.81 0 44.173 0 39.75c0-5.402 2.305-9.932 6.937-13.526 2.474-1.935 4.737-2.893 6.83-2.893 1.058 0 1.926.298 2.623.915.677.617 1.015 1.404 1.015 2.382 0 1.297-.782 2.425-2.347 3.36l-2.369 1.49c-1.396.828-2.559 2.02-3.447 3.55-.93 1.511-1.396 3-1.375 4.467-.02 2.382.783 4.318 2.411 5.849 1.586 1.53 3.617 2.297 6.112 2.297 2.728 0 5.097-1.021 7.127-3.063 2.01-1.999 3.004-4.381 2.982-7.103.022-1.766-.38-3.36-1.184-4.786-.825-1.403-2.601-3.615-5.33-6.614-1.882-2.063-3.235-3.87-4.06-5.444H7.867c-2.77 0-4.145-.936-4.166-2.829.021-1.34.487-2.403 1.48-3.169.952-.723 2.305-1.085 4.061-1.063h5.139c.38-3.935 2.2-7.167 5.393-9.699C23.01 1.276 26.859 0 31.342 0c3.384 0 6.133.914 8.27 2.743 2.114 1.85 3.172 4.233 3.172 7.168 0 3.892-1.692 6.869-5.076 8.953-1.903 1.17-4.949 1.766-9.094 1.766H25.59zm-3.447-7.274h7.19c4.06 0 6.07-1.063 6.07-3.211 0-.809-.402-1.468-1.227-1.978-.846-.49-1.945-.745-3.341-.745-2.136 0-4.103.596-5.88 1.808-1.755 1.191-2.707 2.573-2.812 4.126z"/>
</svg>
