<svg xmlns="http://www.w3.org/2000/svg" xmlns:xlink="http://www.w3.org/1999/xlink" width="30" height="31" viewBox="0 0 30 31">
    <defs>
        <path id="a" d="M0 0h30v31H0z"/>
    </defs>
    <g fill="none" fill-rule="evenodd">
        <mask id="b" fill="#fff">
            <use xlink:href="#a"/>
        </mask>
        <path fill="#FFB600" d="M15 0C6.729 0 0 6.953 0 15.5S6.728 31 15 31c.511 0 .924-.428.924-.955 0-.527-.413-.955-.924-.955-7.252 0-13.15-6.096-13.15-13.589S7.749 1.912 15 1.912c7.25 0 13.148 6.096 13.148 13.59 0 3.13-1.613 6.235-3.92 7.548a5.525 5.525 0 0 1-2.718.723 4.41 4.41 0 0 0 1.46-1.453c.074-.115.172-.215.22-.34.3-.75.327-1.599.51-2.389.222-1.011-4.279-2.982-4.67-1.722-.141.468-.358 1.944-.642 2.333-.252.346-.875.183-1.264-.16-1.026-.903-2.171-2.232-3.176-3.28l.002-.001c-.026-.028-.057-.06-.085-.087l-.085-.087c-1.016-1.037-2.301-2.219-3.175-3.281-.33-.403-.49-1.044-.154-1.306.376-.294 1.805-.516 2.257-.663 1.218-.403-.689-5.057-1.667-4.824-.765.185-1.587.213-2.311.524-.123.053-.219.151-.33.227-2.57 1.685-2.902 5.773-.393 8.818a71.073 71.073 0 0 0 2.98 3.394l-.005.004c.028.029.058.056.087.085.028.03.054.059.08.09l.006-.006c1.066 1.061 2.328 2.623 4.38 4.038 4.319 2.98 7.633 2.149 9.586 1.042 3.37-1.918 4.878-6.014 4.878-9.223C30 6.953 23.27 0 15 0" mask="url(#b)"/>
    </g>
</svg>
